<svg xmlns="http://www.w3.org/2000/svg" width="40" height="40" fill="none"><path fill="#DC296C" d="M34.128 19.924a3.492 3.492 0 0 0 1.03-2.486c0-.939-.366-1.821-1.03-2.486a3.501 3.501 0 0 0-2.292-1.022 3.501 3.501 0 0 0-1.023-2.292 3.49 3.49 0 0 0-2.292-1.025 3.5 3.5 0 0 0-1.022-2.29 3.502 3.502 0 0 0-2.29-1.022 3.49 3.49 0 0 0-1.025-2.292 3.493 3.493 0 0 0-2.486-1.03c-.939 0-1.822.366-2.486 1.03l-.828.828-.829-.828a3.52 3.52 0 0 0-4.972 0 3.493 3.493 0 0 0-1.03 2.486c0 .257.029.51.083.757a3.515 3.515 0 0 0-2.484 4.143 3.515 3.515 0 0 0-2.486 4.143 3.514 3.514 0 0 0-1.54 5.873l.828.828c.287.287.615.517.97.687L.88 29.97 10.91 39.997l8.413-8.461a5.898 5.898 0 0 0 1.544-.013l8.466 8.465 9.943-9.943-7.634-7.635 2.486-2.486ZM14.24 6.666a1.173 1.173 0 0 1 1.657 0l3.314 3.315c.457.457.457 1.2 0 1.657-.457.457-1.2.457-1.657 0L14.24 8.323a1.171 1.171 0 0 1 0-1.657Zm-2.486 4.143a1.171 1.171 0 0 1 1.657 0l2.486 2.486a1.171 1.171 0 1 1-1.657 1.658l-2.486-2.486a1.172 1.172 0 0 1 0-1.658Zm-2.486 4.144a1.171 1.171 0 0 1 1.657 0l1.657 1.657a1.171 1.171 0 1 1-1.657 1.657L9.269 16.61a1.173 1.173 0 0 1 0-1.657ZM7.61 21.581l-.828-.829a1.171 1.171 0 1 1 1.657-1.657l.829.828a1.171 1.171 0 1 1-1.657 1.657Zm9.944 6.629-.652-.652-1.657 1.657.652.652c.306.306.639.57.99.794l-5.983 6.016-6.709-6.71 6.73-6.73a3.5 3.5 0 0 0 1.022-2.291 3.5 3.5 0 0 0 2.293-1.023 3.49 3.49 0 0 0 1.024-2.292 3.5 3.5 0 0 0 2.29-1.022 3.49 3.49 0 0 0 1.024-2.293 3.5 3.5 0 0 0 2.29-1.022 3.52 3.52 0 0 0 0-4.972l-.828-.828.829-.829a1.171 1.171 0 1 1 1.657 1.657l-.829.829 1.658 1.657.828-.828a1.173 1.173 0 0 1 1.657 1.657l-.828.829 1.657 1.657.829-.829c.221-.221.516-.343.829-.343a1.173 1.173 0 0 1 .829 2l-.83.829 1.658 1.657.828-.828a1.173 1.173 0 0 1 2.001.828c0 .313-.122.608-.343.829l-9.944 9.944a3.52 3.52 0 0 1-4.972 0Zm18.407 1.834-6.63 6.629-6.06-6.06c.323-.214.628-.462.912-.746l5.8-5.8 5.978 5.977ZM28.203.003h2.344v4.765h-2.344V.003ZM30.886 7.458l7.03-7.03 1.657 1.657-7.03 7.03-1.657-1.657ZM35.234 9.456H40V11.8h-4.766V9.456ZM9.453.003h2.344v4.765H9.453V.003ZM.42 2.082 2.079.425l7.03 7.03-1.657 1.657-7.03-7.03ZM0 9.456h4.766V11.8H0V9.456Z"/></svg>