<?xml version="1.0" encoding="UTF-8"?>
<svg id="Layer_1" xmlns="http://www.w3.org/2000/svg" version="1.1" viewBox="0 0 40 40">
  <!-- Generator: Adobe Illustrator 29.4.0, SVG Export Plug-In . SVG Version: 2.1.0 Build 152)  -->
  <defs>
    <style>
      .st0 {
        fill: #ff7800;
      }
    </style>
  </defs>
  <path class="st0" d="M34.13,19.92c.66-.66,1.03-1.55,1.03-2.49,0-.94-.37-1.82-1.03-2.49-.61-.61-1.43-.98-2.29-1.02-.05-.86-.41-1.68-1.02-2.29-.61-.61-1.43-.98-2.29-1.02-.05-.86-.41-1.68-1.02-2.29-.61-.61-1.43-.98-2.29-1.02-.05-.86-.41-1.68-1.02-2.29-.66-.66-1.55-1.03-2.49-1.03-.94,0-1.82.37-2.49,1.03l-.83.83-.83-.83c-1.37-1.37-3.6-1.37-4.97,0-.66.66-1.03,1.55-1.03,2.49,0,.26.03.51.08.76-1.8.5-2.89,2.32-2.48,4.14-1.8.5-2.89,2.32-2.49,4.14-1.87.52-2.96,2.46-2.44,4.33.16.58.47,1.12.9,1.55l.83.83c.29.29.61.52.97.69L.88,29.97l10.03,10.03,8.41-8.46c.51.06,1.03.06,1.54-.01l8.47,8.46,9.94-9.94-7.63-7.64s2.49-2.49,2.49-2.49ZM14.24,6.67c.46-.46,1.2-.46,1.66,0l3.31,3.32c.46.46.46,1.2,0,1.66s-1.2.46-1.66,0l-3.31-3.31c-.46-.46-.46-1.2,0-1.66,0,0,0,0,0,0ZM11.75,10.81c.46-.46,1.2-.46,1.66,0h0s2.49,2.49,2.49,2.49c.46.46.46,1.2,0,1.66-.46.46-1.2.46-1.66,0h0l-2.49-2.49c-.46-.46-.46-1.2,0-1.66h0ZM9.27,14.95c.46-.46,1.2-.46,1.66,0h0s1.66,1.66,1.66,1.66c.46.46.46,1.2,0,1.66s-1.2.46-1.66,0l-1.66-1.66c-.46-.46-.46-1.2,0-1.66h0ZM7.61,21.58l-.83-.83c-.46-.46-.46-1.2,0-1.66.46-.46,1.2-.46,1.66,0h0l.83.83c.46.46.46,1.2,0,1.66-.46.46-1.2.46-1.66,0h0ZM17.55,28.21l-.65-.65-1.66,1.66.65.65c.31.31.64.57.99.79l-5.98,6.02-6.71-6.71,6.73-6.73c.61-.61.98-1.43,1.02-2.29.86-.05,1.68-.41,2.29-1.02.61-.61.98-1.43,1.02-2.29.86-.05,1.68-.41,2.29-1.02.61-.61.98-1.43,1.02-2.29.86-.05,1.68-.41,2.29-1.02,1.37-1.37,1.37-3.6,0-4.97l-.83-.83.83-.83c.46-.46,1.2-.46,1.66,0,.46.46.46,1.2,0,1.66l-.83.83,1.66,1.66.83-.83c.48-.44,1.22-.4,1.66.08.41.45.41,1.13,0,1.58l-.83.83,1.66,1.66.83-.83c.22-.22.52-.34.83-.34.65,0,1.17.53,1.17,1.18,0,.31-.12.61-.34.82l-.83.83,1.66,1.66.83-.83c.46-.46,1.2-.46,1.66,0,.22.22.34.52.34.83,0,.31-.12.61-.34.83l-9.94,9.94c-1.37,1.37-3.6,1.37-4.97,0ZM35.96,30.04l-6.63,6.63-6.06-6.06c.32-.21.63-.46.91-.75l5.8-5.8s5.98,5.98,5.98,5.98ZM28.2,0h2.34v4.76h-2.34V0ZM30.89,7.46L37.92.43l1.66,1.66-7.03,7.03s-1.66-1.66-1.66-1.66ZM35.23,9.46h4.77v2.34h-4.77v-2.34ZM9.45,0h2.34v4.76h-2.34V0ZM.42,2.08L2.08.43l7.03,7.03-1.66,1.66L.42,2.08h0ZM0,9.46h4.77v2.34H0v-2.34Z"/>
</svg>