<svg width="64" height="64" viewBox="0 0 64 64" fill="none" xmlns="http://www.w3.org/2000/svg">
<path d="M26.6673 45.1999H16.5607C7.57398 45.1999 5.33398 42.9599 5.33398 33.9732V17.9732C5.33398 8.98658 7.57398 6.74658 16.5607 6.74658H44.6407C53.6273 6.74658 55.8673 8.98658 55.8673 17.9732" stroke="#ffffff" stroke-width="2" stroke-linecap="round" stroke-linejoin="round"/>
<path d="M26.666 57.2535V45.2002" stroke="#ffffff" stroke-width="2" stroke-linecap="round" stroke-linejoin="round"/>
<path d="M5.33398 34.5332H26.6673" stroke="#ffffff" stroke-width="2" stroke-linecap="round" stroke-linejoin="round"/>
<path d="M17.9727 57.2534H26.666" stroke="#ffffff" stroke-width="2" stroke-linecap="round" stroke-linejoin="round"/>
<path d="M58.6674 34.1336V49.3602C58.6674 55.6802 57.0941 57.2536 50.7741 57.2536H41.3074C34.9874 57.2536 33.4141 55.6802 33.4141 49.3602V34.1336C33.4141 27.8136 34.9874 26.2402 41.3074 26.2402H50.7741C57.0941 26.2402 58.6674 27.8136 58.6674 34.1336Z" stroke="#ffffff" stroke-width="2" stroke-linecap="round" stroke-linejoin="round"/>
<path d="M45.9847 48.6668H46.0087" stroke="#ffffff" stroke-width="2" stroke-linecap="round" stroke-linejoin="round"/>
</svg>
