<?xml version="1.0" encoding="UTF-8"?>
<svg id="Layer_1" xmlns="http://www.w3.org/2000/svg" version="1.1" viewBox="0 0 40 40">
  <!-- Generator: Adobe Illustrator 29.4.0, SVG Export Plug-In . SVG Version: 2.1.0 Build 152)  -->
  <defs>
    <style>
      .st0 {
        fill: #ff7800;
      }
    </style>
  </defs>
  <path class="st0" d="M36.31,21.99c-.68,0-1.35.19-1.94.56l-4.06,2.51c-1.44.89-3.07,1.41-4.76,1.51.83-1.98-.1-4.26-2.08-5.09-.47-.2-.98-.3-1.5-.3h-6.88c-3.16,0-6.22.66-9.1,1.95L0,25.83v14.17l8.54-2.93c2.07-.71,4.24-1.07,6.43-1.07h11.8c1.94,0,3.83-.69,5.32-1.94l6.6-5.55c.83-.7,1.31-1.73,1.31-2.82,0-2.04-1.65-3.69-3.69-3.69ZM2.36,36.71v-9.36l2.76-1.24,2.89,8.66c-.43.14.11-.04-5.64,1.93ZM37.17,26.71l-6.6,5.55c-1.07.9-2.41,1.39-3.81,1.39h-11.8c-1.59,0-3.16.17-4.7.51l-3-9.01c2.47-1.07,5.13-1.62,7.83-1.61h6.88c.84,0,1.53.69,1.53,1.53s-.69,1.53-1.53,1.53h-6.68v2.35h9.64c2.34,0,4.63-.65,6.61-1.88l4.06-2.51c.21-.13.45-.2.7-.2.65,0,1.34.51,1.34,1.34,0,.4-.17.77-.47,1.02h0ZM21.18,19.11c2.74-1.88,8.24-5.54,10.1-8.3,1.95-2.89,1.69-6.52-.62-8.83-2.61-2.61-6.83-2.64-9.48-.07-2.65-2.58-6.87-2.54-9.48.07-2.32,2.32-2.57,5.95-.62,8.83,2.14,3.17,9.06,7.53,10.11,8.3ZM13.36,3.64c1.72-1.72,4.5-1.72,6.22,0,0,0,0,0,0,0l1.59,1.59,1.59-1.59c1.72-1.72,4.5-1.72,6.22,0,0,0,0,0,0,0,1.51,1.51,1.65,3.91.34,5.85-1.42,2.1-5.93,5.24-8.16,6.77-5.44-3.7-7.44-5.72-8.15-6.77-1.31-1.94-1.17-4.34.34-5.85Z"/>
</svg>