<svg xmlns="http://www.w3.org/2000/svg" width="40" height="40" fill="none"><path fill="#DC296C" d="M36.306 21.993c-.678 0-1.347.192-1.935.556l-4.057 2.51a10.21 10.21 0 0 1-4.76 1.511 3.887 3.887 0 0 0-3.576-5.393h-6.883c-3.158 0-6.219.657-9.098 1.953L.001 25.828V40l8.542-2.929a19.773 19.773 0 0 1 6.427-1.07h11.799c1.943 0 3.833-.69 5.32-1.942l6.598-5.554a3.68 3.68 0 0 0 1.312-2.82 3.696 3.696 0 0 0-3.693-3.692ZM2.355 36.706v-9.357l2.756-1.24L8 34.773c-.426.141.113-.04-5.645 1.933Zm34.817-10-6.597 5.553a5.917 5.917 0 0 1-3.805 1.388H14.97c-1.586 0-3.158.17-4.699.505l-3.002-9.01a19.679 19.679 0 0 1 7.826-1.612h6.882c.843 0 1.53.686 1.53 1.53 0 .843-.687 1.529-1.53 1.529h-6.683v2.353h9.643c2.339 0 4.626-.65 6.615-1.882l4.057-2.51a1.31 1.31 0 0 1 .697-.204c.645 0 1.34.511 1.34 1.338 0 .395-.173.767-.475 1.021ZM21.184 19.112c2.743-1.877 8.236-5.542 10.099-8.298 1.949-2.885 1.692-6.517-.624-8.833a6.75 6.75 0 0 0-9.482-.07 6.75 6.75 0 0 0-9.483.07c-2.316 2.316-2.573 5.948-.624 8.833 2.145 3.174 9.059 7.53 10.114 8.298ZM13.358 3.644a4.4 4.4 0 0 1 6.226 0l1.593 1.593 1.592-1.593a4.4 4.4 0 0 1 6.226 0c1.508 1.508 1.647 3.915.338 5.852-1.42 2.102-5.927 5.24-8.161 6.772-5.442-3.697-7.44-5.718-8.152-6.772-1.31-1.937-1.17-4.344.338-5.852Z"/></svg>