<?xml version="1.0" encoding="UTF-8"?>
<svg id="Layer_1" xmlns="http://www.w3.org/2000/svg" version="1.1" viewBox="0 0 36 40">
  <!-- Generator: Adobe Illustrator 29.4.0, SVG Export Plug-In . SVG Version: 2.1.0 Build 152)  -->
  <defs>
    <style>
      .st0 {
        fill: #ff7800;
      }
    </style>
  </defs>
  <path class="st0" d="M35.49,16.86v-6.41c0-1.9-1.53-3.5-3.4-3.55-.72-.02-1.42.18-2.02.57-.64-.82-1.6-1.31-2.64-1.35-.43-.01-.85.05-1.26.2v-.56c0-1.9-1.53-3.5-3.4-3.55-.72-.02-1.42.18-2.02.57-.64-.82-1.6-1.31-2.64-1.35-.73-.02-1.44.18-2.04.59-1.13-1.4-3.15-1.7-4.65-.69C10.79.52,9.82.03,8.79,0c-.95-.03-1.86.33-2.54.99-.68.66-1.06,1.56-1.06,2.51v3.24h-1.17c-.94,0-1.82.36-2.48,1.03-.66.66-1.03,1.55-1.03,2.48v1.91c0,4.85,2.73,9.26,7.01,11.44v2.04h-1.86v14.36h26.24v-9.67h-1.86v-2.98c3.42-2.4,5.46-6.32,5.45-10.5ZM9.16,21.79c-3.83-1.67-6.31-5.44-6.3-9.62v-1.91c0-.31.12-.61.34-.83.22-.22.51-.34.83-.34h1.17v3.52h2.34V3.5c0-.32.12-.61.35-.83.22-.22.53-.34.84-.33.62.02,1.12.56,1.12,1.21v5.37h2.34v-4.64c0-.65.5-1.19,1.12-1.2.64-.02,1.17.48,1.19,1.12,0,.01,0,.03,0,.04v4.69h2.35v-3.99c0-.64.52-1.16,1.15-1.16.01,0,.02,0,.04,0,.62.02,1.12.56,1.12,1.21v3.94h2.34v-3.21c0-.64.51-1.15,1.15-1.16.01,0,.03,0,.04,0,.62.02,1.12.56,1.12,1.2v6.41c0,3.62-1.83,6.94-4.9,8.88l-.55.34v4.25h-8.52v-3.55l-.7-.31h0ZM8.01,37.66v-9.67h12.23v9.67h-12.23ZM29.56,37.66h-6.97v-4.98h6.97v4.98ZM28.25,25.73l-.55.34v4.25h-5.12v-4.69h-1.85v-2.98c3.42-2.4,5.46-6.32,5.45-10.5v-2.54h0c0-.31.12-.61.35-.83s.52-.34.84-.33c.62.02,1.12.56,1.12,1.2v3.94h2.34v-3.21c0-.31.12-.61.35-.83.22-.22.53-.34.84-.33.62.02,1.12.56,1.12,1.2v6.41c0,3.62-1.83,6.94-4.9,8.88h0Z"/>
</svg>