<svg xmlns="http://www.w3.org/2000/svg" width="36" height="40" fill="none"><path fill="#DC296C" d="M35.491 16.857v-6.408c0-1.905-1.526-3.496-3.403-3.548a3.474 3.474 0 0 0-2.019.572 3.484 3.484 0 0 0-2.639-1.348 3.51 3.51 0 0 0-1.257.195v-.558c0-1.905-1.526-3.497-3.403-3.548a3.473 3.473 0 0 0-2.019.571 3.485 3.485 0 0 0-2.639-1.347 3.474 3.474 0 0 0-2.043.587 3.468 3.468 0 0 0-4.647-.691A3.484 3.484 0 0 0 8.794.001a3.48 3.48 0 0 0-2.538.99 3.473 3.473 0 0 0-1.06 2.51V6.74H4.024c-.939 0-1.821.365-2.485 1.03a3.493 3.493 0 0 0-1.03 2.485v1.914c0 4.849 2.726 9.256 7.01 11.437v2.039H5.662V40H31.9v-9.668h-1.856v-2.98a12.77 12.77 0 0 0 5.447-10.495ZM9.158 21.79a10.491 10.491 0 0 1-6.305-9.62v-1.915c0-.313.121-.607.343-.828.221-.222.515-.343.828-.343h1.172v3.515H7.54V3.501c0-.315.124-.61.35-.83a1.15 1.15 0 0 1 .84-.327c.62.017 1.124.558 1.124 1.205v5.375h2.344V4.285c0-.647.504-1.188 1.123-1.205a1.155 1.155 0 0 1 1.19 1.158l.003 4.687h2.344V4.936a1.156 1.156 0 0 1 1.19-1.157c.62.018 1.124.558 1.124 1.206v3.938h2.344v-3.21a1.153 1.153 0 0 1 1.19-1.156c.62.016 1.124.557 1.124 1.204v6.407c0 3.623-1.832 6.941-4.9 8.877l-.547.345v4.254H9.862v-3.548l-.704-.307ZM8.006 37.656v-9.668h12.232v9.668H8.006Zm21.55 0h-6.974v-4.98h6.974v4.98Zm-1.309-11.922-.546.344v4.254h-5.119v-4.687h-1.855v-2.98a12.77 12.77 0 0 0 5.447-10.496V9.625h.002c0-.315.124-.61.35-.83.226-.22.525-.335.84-.327.62.017 1.124.558 1.124 1.205v3.939h2.344V10.4c0-.315.124-.61.35-.83a1.15 1.15 0 0 1 .84-.327c.62.017 1.123.558 1.123 1.205v6.408c0 3.622-1.831 6.94-4.9 8.877Z"/></svg>