<svg xmlns="http://www.w3.org/2000/svg" width="40" height="40" fill="none"><path fill="#DC296C" d="m27.643 0-1.036 7.13-6.461 3.19 4.312 2.127L.226 30.321h8.836V40l18.22-21.846.36 2.484 5.03-5.16 7.102 1.219-3.353-6.378 3.353-6.378-7.102 1.219L27.642 0ZM11.405 33.531v-5.554H7.351l19.29-14.229.188 1.29L11.405 33.53Zm22.368-23.212 1.717 3.265-3.636-.623-2.575 2.641-.53-3.65-3.308-1.633 3.308-1.632.53-3.65 2.575 2.64 3.636-.623-1.717 3.265Z"/><path fill="#DC296C" d="M14.98 13.835h1.171V11.49h-1.172a3.52 3.52 0 0 1-3.515-3.515V6.804H9.12v1.172a3.52 3.52 0 0 1-3.515 3.515H4.433v2.344h1.172A3.52 3.52 0 0 1 9.12 17.35v1.172h2.344V17.35a3.52 3.52 0 0 1 3.515-3.515Zm-5.864-1.172c.445-.335.842-.73 1.176-1.176.335.445.73.841 1.176 1.176-.445.334-.841.73-1.176 1.176a5.908 5.908 0 0 0-1.176-1.176ZM24.353 27.896h-1.171v2.344h1.171a3.52 3.52 0 0 1 3.516 3.515v1.172h2.343v-1.172a3.52 3.52 0 0 1 3.516-3.515H34.9v-2.344h-1.172a3.52 3.52 0 0 1-3.516-3.515v-1.172H27.87v1.172a3.52 3.52 0 0 1-3.516 3.515Zm5.863 1.172c-.445.334-.841.73-1.175 1.176a5.91 5.91 0 0 0-1.176-1.176c.445-.335.841-.73 1.176-1.176.334.445.73.841 1.175 1.176Z"/></svg>