<?xml version="1.0" encoding="UTF-8"?>
<svg id="Layer_1" xmlns="http://www.w3.org/2000/svg" version="1.1" viewBox="0 0 40 40">
  <!-- Generator: Adobe Illustrator 29.4.0, SVG Export Plug-In . SVG Version: 2.1.0 Build 152)  -->
  <defs>
    <style>
      .st0 {
        fill: #ff7800;
      }
    </style>
  </defs>
  <path class="st0" d="M27.64,0l-1.04,7.13-6.46,3.19,4.31,2.13L.23,30.32h8.84v9.68l18.22-21.85.36,2.48,5.03-5.16,7.1,1.22-3.35-6.38,3.35-6.38-7.1,1.22L27.64,0h0ZM11.4,33.53v-5.55h-4.05l19.29-14.23.19,1.29-15.42,18.49h0ZM33.77,10.32l1.72,3.27-3.64-.62-2.58,2.64-.53-3.65-3.31-1.63,3.31-1.63.53-3.65,2.58,2.64,3.64-.62s-1.72,3.27-1.72,3.27Z"/>
  <path class="st0" d="M14.98,13.84h1.17v-2.35h-1.17c-1.94,0-3.51-1.57-3.52-3.52v-1.17h-2.34v1.17c0,1.94-1.57,3.51-3.52,3.52h-1.17v2.34h1.17c1.94,0,3.51,1.57,3.51,3.52v1.17h2.34v-1.17c0-1.94,1.57-3.51,3.52-3.52h0ZM9.12,12.66c.44-.34.84-.73,1.18-1.18.34.44.73.84,1.18,1.18-.44.33-.84.73-1.18,1.18-.33-.45-.73-.84-1.18-1.18ZM24.35,27.9h-1.17v2.34h1.17c1.94,0,3.51,1.57,3.52,3.52v1.17h2.34v-1.17c0-1.94,1.58-3.51,3.52-3.51h1.17v-2.34h-1.17c-1.94,0-3.51-1.57-3.52-3.51v-1.17h-2.34v1.17c0,1.94-1.58,3.51-3.52,3.51h0ZM30.22,29.07c-.44.33-.84.73-1.17,1.18-.33-.45-.73-.84-1.18-1.18.44-.33.84-.73,1.18-1.18.33.44.73.84,1.17,1.18Z"/>
</svg>