<svg xmlns="http://www.w3.org/2000/svg" width="40" height="40" fill="none"><path fill="#DC296C" d="M37.647 37.647v-4.706h-1.176c-5.504 0-9.066-1.897-9.777-2.119a5.731 5.731 0 0 0-5.517.695v-.072c0-2.392 2.409-4.038 4.643-3.144.712.23 4.165 2.004 9.418 2.257l.113-2.35c-4.837-.233-7.974-1.87-8.657-2.092a5.752 5.752 0 0 0-.748-.24 11.041 11.041 0 0 1 2.789-6.23 11.738 11.738 0 0 0 3.03-7.881C31.765 5.278 26.487 0 20 0 13.513 0 8.235 5.278 8.235 11.765c0 2.917 1.076 5.716 3.03 7.88a11.042 11.042 0 0 1 2.789 6.23 5.748 5.748 0 0 0-.748.241c-.69.224-3.846 1.86-8.657 2.092l.113 2.35c5.256-.253 8.716-2.03 9.418-2.257 2.214-.885 4.643.732 4.643 3.144v.073a5.732 5.732 0 0 0-5.517-.696c-.722.225-4.317 2.12-9.777 2.12H2.353v4.705H0V40h40v-2.353h-2.353ZM18.824 12.941c0-.649.527-1.176 1.176-1.176.649 0 1.177.527 1.177 1.176a1.178 1.178 0 0 1-2.353 0ZM16.41 25.788a13.39 13.39 0 0 0-3.398-7.72 9.39 9.39 0 0 1-2.424-6.303c0-5.19 4.222-9.412 9.412-9.412s9.412 4.222 9.412 9.412a9.39 9.39 0 0 1-2.424 6.303 13.39 13.39 0 0 0-3.398 7.72 5.732 5.732 0 0 0-2.413 1.024V16.268a3.535 3.535 0 0 0 2.352-3.327A3.533 3.533 0 0 0 20 9.411a3.533 3.533 0 0 0-3.53 3.53c0 1.534.984 2.841 2.354 3.327v10.544a5.731 5.731 0 0 0-2.414-1.024ZM4.706 37.648v-2.38c5.278-.24 8.752-2.029 9.474-2.261 2.214-.886 4.643.732 4.643 3.144v1.496H4.706Zm16.47 0V36.15c0-2.392 2.41-4.038 4.644-3.144.714.23 4.193 2.02 9.474 2.26v2.38H21.177Z"/></svg>