<svg width="64" height="64" viewBox="0 0 64 64" fill="none" xmlns="http://www.w3.org/2000/svg">
<path d="M28.6667 6.53303C30.5067 4.95969 33.52 4.95969 35.3866 6.53303L39.6 10.16C40.4 10.8533 41.8933 11.4132 42.96 11.4132H47.4933C50.32 11.4132 52.64 13.7331 52.64 16.5597V21.0932C52.64 22.1332 53.2 23.6533 53.8933 24.4533L57.52 28.6665C59.0934 30.5065 59.0934 33.5199 57.52 35.3865L53.8933 39.5998C53.2 40.3998 52.64 41.8931 52.64 42.9598V47.4933C52.64 50.32 50.32 52.6398 47.4933 52.6398H42.96C41.92 52.6398 40.4 53.1997 39.6 53.8931L35.3866 57.5197C33.5466 59.093 30.5333 59.093 28.6667 57.5197L24.4534 53.8931C23.6534 53.1997 22.16 52.6398 21.0933 52.6398H16.48C13.6533 52.6398 11.3333 50.32 11.3333 47.4933V42.9331C11.3333 41.8931 10.7734 40.3998 10.1067 39.5998L6.50668 35.3599C4.96001 33.5199 4.96001 30.5332 6.50668 28.6932L10.1067 24.4533C10.7734 23.6533 11.3333 22.1599 11.3333 21.1199V16.5597C11.3333 13.7331 13.6533 11.4132 16.48 11.4132H21.0933C22.1333 11.4132 23.6534 10.8533 24.4534 10.16L28.6667 6.53303Z" stroke="#ffffff" stroke-width="2" stroke-linecap="round" stroke-linejoin="round"/>
<path d="M26.3735 39.5198L30.2401 42.5065C30.7467 43.0131 31.8668 43.2532 32.6134 43.2532H37.3334C38.8267 43.2532 40.4534 42.1332 40.8267 40.6399L43.8134 31.5198C44.4267 29.7865 43.3068 28.2665 41.4401 28.2665H36.4534C35.7068 28.2665 35.0934 27.6534 35.2001 26.7734L35.8134 22.7734C36.0534 21.6534 35.3068 20.4 34.1868 20.0266C33.2001 19.6533 31.9468 20.1598 31.4401 20.9065L26.3201 28.5064" stroke="#ffffff" stroke-width="2" stroke-miterlimit="10"/>
<path d="M20 39.5192V27.306C20 25.546 20.7467 24.9326 22.5067 24.9326H23.76C25.4933 24.9326 26.2667 25.546 26.2667 27.306V39.5192C26.2667 41.2525 25.52 41.8926 23.76 41.8926H22.5067C20.7467 41.8926 20 41.2792 20 39.5192Z" stroke="#ffffff" stroke-width="2" stroke-linecap="round" stroke-linejoin="round"/>
</svg>
