<svg width="36" height="36" viewBox="0 0 36 36" fill="none" xmlns="http://www.w3.org/2000/svg">
<path d="M19.4266 6.00861L21.1167 11.2102C21.4514 12.2403 22.4113 12.9377 23.4943 12.9377H28.9636C30.4167 12.9377 31.0209 14.7971 29.8453 15.6512L25.4206 18.866C24.5443 19.5026 24.1777 20.631 24.5124 21.6611L26.2025 26.8627C26.6515 28.2447 25.0698 29.3939 23.8942 28.5398L19.4695 25.325C18.5932 24.6884 17.4068 24.6884 16.5305 25.325L12.1058 28.5398C10.9302 29.3939 9.34848 28.2447 9.79751 26.8627L11.4876 21.6611C11.8223 20.631 11.4557 19.5026 10.5794 18.866L6.15468 15.6512C4.9791 14.7971 5.58327 12.9377 7.03635 12.9377H12.5057C13.5887 12.9377 14.5486 12.2403 14.8833 11.2102L16.5734 6.00861C17.0224 4.62665 18.9776 4.62665 19.4266 6.00861Z" stroke="#FFEB33"/>
<mask id="mask0_11714_1422" style="mask-type:alpha" maskUnits="userSpaceOnUse" x="5" y="4" width="26" height="26">
<path d="M19.9021 5.8541C19.3034 4.01148 16.6966 4.01148 16.0979 5.8541L14.4078 11.0557C14.14 11.8798 13.3721 12.4377 12.5057 12.4377H7.03635C5.09891 12.4377 4.29335 14.9169 5.86078 16.0557L10.2855 19.2705C10.9865 19.7798 11.2798 20.6825 11.0121 21.5066L9.32198 26.7082C8.72327 28.5508 10.8322 30.0831 12.3997 28.9443L16.8244 25.7295C17.5254 25.2202 18.4746 25.2202 19.1756 25.7295L23.6003 28.9443C25.1678 30.0831 27.2767 28.5508 26.678 26.7082L24.9879 21.5066C24.7202 20.6825 25.0135 19.7798 25.7145 19.2705L30.1392 16.0557C31.7066 14.9169 30.9011 12.4377 28.9636 12.4377H23.4943C22.6279 12.4377 21.86 11.8798 21.5922 11.0557L19.9021 5.8541Z" fill="#EA8D40"/>
</mask>
<g mask="url(#mask0_11714_1422)">
<rect width="22" height="36" transform="matrix(-1 0 0 1 23 0)" fill="#FFEB33"/>
</g>
</svg>
